<?xml version="1.0" encoding="UTF-8"?>
<svg version="1.1" xmlns="http://www.w3.org/2000/svg" width="1536" height="1024">
<path d="M0 0 C506.88 0 1013.76 0 1536 0 C1536 337.92 1536 675.84 1536 1024 C1029.12 1024 522.24 1024 0 1024 C0 686.08 0 348.16 0 0 Z " fill="#FDFDFD" transform="translate(0,0)"/>
<path d="M0 0 C45.11573718 -0.67286707 88.38421695 6.77698283 131.38964844 20.19140625 C132.55693481 20.55383423 132.55693481 20.55383423 133.74780273 20.92358398 C138.36437103 22.38854824 142.75584448 24.13345593 147.20214844 26.06640625 C149.34308629 26.80982393 151.48909632 27.53877667 153.63964844 28.25390625 C161.15368151 30.90965974 168.10534828 34.35646515 175.16992188 38.02246094 C177.17306371 39.05146556 179.18771584 40.05209829 181.20996094 41.04296875 C217.34328882 58.75165818 248.61441837 82.46897659 277.07714844 110.81640625 C278.27210938 112.00435791 278.27210938 112.00435791 279.49121094 113.21630859 C307.43214644 141.23342534 329.25845103 175.74935692 345.45214844 211.69140625 C346.21410522 213.37194092 346.21410522 213.37194092 346.99145508 215.08642578 C349.89236377 221.63277934 352.24903296 228.1465979 354.25952148 235.0168457 C355.13226861 237.84033296 356.13916044 240.52868706 357.26855469 243.2578125 C376.35201921 289.53684384 377.71575492 346.08051637 371.20214844 395.06640625 C371.06873047 396.09443359 370.9353125 397.12246094 370.79785156 398.18164062 C363.13430737 456.63046277 339.72985155 513.67305416 303.20214844 560.06640625 C302.50734375 560.96230469 301.81253906 561.85820313 301.09667969 562.78125 C287.38908489 580.21957163 272.46068492 597.72492323 255.51464844 612.09375 C253.55102556 613.76879992 251.62427457 615.47323816 249.70214844 617.1953125 C248.43152931 618.31925262 247.16069442 619.44294887 245.88964844 620.56640625 C245.27822998 621.11997803 244.66681152 621.6735498 244.03686523 622.24389648 C242.49110923 623.59715645 240.85195838 624.84215084 239.20214844 626.06640625 C238.21214844 625.73640625 237.22214844 625.40640625 236.20214844 625.06640625 C235.49902344 623.3515625 235.49902344 623.3515625 234.95214844 621.12890625 C230.74403135 607.51187096 219.30409706 598.12781132 207.09838867 591.67895508 C200.37239447 588.38229678 193.60020554 587.05553875 186.20214844 586.06640625 C185.04585937 585.90140625 183.88957031 585.73640625 182.69824219 585.56640625 C176.22571244 584.77306997 169.70651315 584.43392057 163.20214844 584.00390625 C161.84145729 583.91231815 160.48078005 583.82052297 159.12011719 583.72851562 C155.81425846 583.50578046 152.50827407 583.28513779 149.20214844 583.06640625 C149.20327637 581.88723633 149.2044043 580.70806641 149.20556641 579.49316406 C149.20185976 575.06446755 149.15874446 570.63683771 149.10449219 566.20849609 C149.08646682 564.30199108 149.07873892 562.39535691 149.08203125 560.48876953 C149.09504958 548.07579253 149.06956885 537.35511198 140.06103516 527.79394531 C137.56043748 525.4589053 135.3023978 523.47899976 132.07714844 522.26953125 C129.20423013 520.42607533 129.11800907 518.18770087 128.32714844 514.94140625 C125.4272574 504.73558818 119.19383091 497.26141573 110.05371094 491.77734375 C106.2258335 489.79298846 106.2258335 489.79298846 102.07324219 488.7734375 C101.45578125 488.54011719 100.83832031 488.30679687 100.20214844 488.06640625 C99.25292969 485.9140625 99.25292969 485.9140625 98.51464844 483.12890625 C95.66586902 474.65868042 89.73385792 469.5263888 83.45605469 463.421875 C82.46665894 462.45169434 82.46665894 462.45169434 81.45727539 461.46191406 C80.15558579 460.1908133 78.84342255 458.93031839 77.51928711 457.68261719 C71.62375208 451.96545395 66.85024283 445.4916333 66.20214844 437.06640625 C67.07613281 436.68162109 67.07613281 436.68162109 67.96777344 436.2890625 C83.34546853 429.10796904 97.66144819 416.42777852 109.20214844 404.06640625 C110.07226562 403.13441406 110.07226562 403.13441406 110.95996094 402.18359375 C113.58534859 399.27565316 115.87868442 396.69707551 117.67871094 393.1875 C121.74853993 385.79044114 121.74853993 385.79044114 126.24072266 384.46484375 C130.59533562 383.77933633 134.96756634 383.62561045 139.36621094 383.421875 C174.63935186 381.73572184 207.58322759 362.89506377 231.68652344 337.92578125 C247.55663351 319.88708471 258.49743927 297.62030506 263.20214844 274.06640625 C263.3684375 273.34541748 263.53472656 272.62442871 263.70605469 271.8815918 C265.37509671 263.99313293 265.57447463 256.18817227 265.57275391 248.16186523 C265.57710889 245.89945052 265.61349799 243.63902263 265.65136719 241.37695312 C265.80565715 221.6701976 260.38217813 203.60459699 246.40917969 189.203125 C245.68085937 188.49800781 244.95253906 187.79289063 244.20214844 187.06640625 C243.56664062 186.43347656 242.93113281 185.80054688 242.27636719 185.1484375 C225.12323384 169.06071616 200.91069046 164.33528432 178.20214844 163.06640625 C178.19957031 161.92042969 178.19699219 160.77445313 178.19433594 159.59375 C178.36131293 150.10073967 178.36131293 150.10073967 174.70214844 141.69140625 C171.79777653 139.09455607 168.76853968 137.83650189 165.02783203 136.85375977 C161.77367878 135.9470167 158.61559723 134.84373422 155.42480469 133.734375 C147.25686387 130.96309358 138.97942493 128.92432161 130.57714844 127.00390625 C129.07096174 126.65536261 127.56477686 126.30681108 126.05859375 125.95825195 C88.89352147 117.40917242 52.03807863 113.68431275 13.91308594 113.80566406 C10.2955706 113.81707932 6.67834894 113.81025015 3.06084347 113.79879189 C-14.30792252 113.75204071 -31.50707036 114.24021215 -48.79785156 116.06640625 C-49.60154175 116.15083984 -50.40523193 116.23527344 -51.23327637 116.32226562 C-56.2048761 116.86027972 -61.15865492 117.49483312 -66.11035156 118.19140625 C-66.84956848 118.29389679 -67.5887854 118.39638733 -68.35040283 118.50198364 C-116.94101041 123.31087295 -116.94101041 123.31087295 -157.74707031 143.51953125 C-160.24208378 149.5669245 -159.78333826 156.61524363 -159.79785156 163.06640625 C-161.19970703 163.10507812 -161.19970703 163.10507812 -162.62988281 163.14453125 C-177.87684745 163.8028889 -193.05388819 166.10669714 -206.79785156 173.06640625 C-207.77882813 173.55753906 -208.75980469 174.04867187 -209.77050781 174.5546875 C-226.62372798 183.66629943 -238.64852215 198.22350569 -244.93432617 216.34228516 C-247.5869508 225.51586562 -248.36857352 233.96187638 -248.20947266 243.49243164 C-248.17270449 245.7629882 -248.16845712 248.03190893 -248.16894531 250.30273438 C-247.99575011 286.08272541 -232.53652274 318.70242901 -207.79785156 344.06640625 C-207.2190625 344.70707031 -206.64027344 345.34773438 -206.04394531 346.0078125 C-187.40739506 366.13902342 -155.10846629 381.06677444 -127.89550781 382.4765625 C-107.59653745 383.64234114 -107.59653745 383.64234114 -102.97753906 387.91015625 C-100.57803595 390.76094206 -98.75922704 393.90064631 -96.96386719 397.15576172 C-94.92955809 400.48920038 -92.24471532 403.20053323 -89.54785156 406.00390625 C-89.03625488 406.54732666 -88.5246582 407.09074707 -87.99755859 407.65063477 C-86.60443316 409.12897433 -85.20149098 410.5980457 -83.79785156 412.06640625 C-83.15074219 412.75476563 -82.50363281 413.443125 -81.83691406 414.15234375 C-72.28546717 424.06253044 -60.13225348 432.89920529 -47.79785156 439.06640625 C-49.702336 451.76296918 -61.7565094 462.57395556 -71.49707031 470.171875 C-73.84167982 472.10249573 -75.32825482 473.90911364 -76.98535156 476.44140625 C-77.47390625 477.17101562 -77.96246094 477.900625 -78.46582031 478.65234375 C-79.94276951 481.08385036 -79.94276951 481.08385036 -80.56347656 484.1484375 C-82.28244903 488.21195785 -84.35030783 488.70481032 -88.36035156 490.37890625 C-99.87686873 495.63177008 -105.99240303 503.39152965 -110.79785156 515.06640625 C-111.09304688 516.11828125 -111.38824219 517.17015625 -111.69238281 518.25390625 C-112.99487412 521.56766505 -113.96606087 522.22794695 -117.04785156 523.87890625 C-123.99968797 528.14404259 -127.65406027 534.29110574 -129.79785156 542.06640625 C-130.11777562 545.24964487 -130.1692554 548.42347903 -130.21191406 551.62109375 C-130.23128021 552.52264191 -130.25064636 553.42419006 -130.27059937 554.35305786 C-130.33009452 557.21574621 -130.37665974 560.07847543 -130.42285156 562.94140625 C-130.46105904 564.88933988 -130.50011237 566.83725711 -130.54003906 568.78515625 C-130.63577122 573.54543883 -130.71991272 578.30580045 -130.79785156 583.06640625 C-132.69506958 583.21674316 -132.69506958 583.21674316 -134.63061523 583.37011719 C-139.38254547 583.75058876 -144.13269429 584.1503937 -148.88256836 584.55566406 C-150.92738791 584.72750034 -152.9726388 584.89428933 -155.01831055 585.05566406 C-176.04839028 586.72120937 -193.11336389 590.14201615 -208.30957031 606.0859375 C-213.22155834 611.96952756 -217.65004494 618.36770328 -218.79785156 626.06640625 C-223.77394467 624.53965041 -226.9957066 621.58913052 -230.79785156 618.19140625 C-231.45140625 617.61567871 -232.10496094 617.03995117 -232.77832031 616.44677734 C-243.62900349 606.84749065 -254.48342036 597.20222663 -263.93847656 586.19921875 C-265.19622202 584.75651073 -266.47847736 583.33486749 -267.78222656 581.93359375 C-275.05429515 574.10417684 -281.40754745 565.61510932 -287.79785156 557.06640625 C-288.55453125 556.0609375 -289.31121094 555.05546875 -290.09082031 554.01953125 C-295.34775886 546.92633673 -300.14498768 539.56375687 -304.79785156 532.06640625 C-305.19230469 531.43524902 -305.58675781 530.8040918 -305.99316406 530.15380859 C-313.58265413 517.92799698 -319.78537253 505.1274032 -325.79785156 492.06640625 C-326.24894287 491.08913574 -326.70003418 490.11186523 -327.16479492 489.10498047 C-329.57340162 483.85295921 -331.79510643 478.62242651 -333.70800781 473.16796875 C-334.50356526 470.90390921 -335.32790693 468.64990502 -336.16894531 466.40234375 C-341.72782893 451.41808447 -345.53777609 435.9550769 -349.04785156 420.37890625 C-349.27432373 419.37549194 -349.27432373 419.37549194 -349.50537109 418.35180664 C-354.53354859 395.31118948 -356.08983661 372.08154889 -356.11035156 348.56640625 C-356.11375549 347.6539917 -356.11715942 346.74157715 -356.1206665 345.80151367 C-356.16160272 326.64336432 -354.55147639 307.85607816 -350.79785156 289.06640625 C-350.58539795 287.97392578 -350.58539795 287.97392578 -350.36865234 286.859375 C-343.98143217 254.16810004 -333.41976932 223.94126181 -318.79785156 194.06640625 C-318.42305664 193.29619141 -318.04826172 192.52597656 -317.66210938 191.73242188 C-301.96846815 159.84544139 -279.07333754 131.76171381 -254.79785156 106.06640625 C-254.09015625 105.31617188 -253.38246094 104.5659375 -252.65332031 103.79296875 C-248.24594373 99.25094726 -243.48796287 95.28380497 -238.55175781 91.328125 C-236.05762302 89.27975047 -233.71084896 87.15095671 -231.36035156 84.94140625 C-202.25124083 58.58276268 -166.13319211 39.37601742 -129.92285156 24.75390625 C-128.40824341 24.14071533 -128.40824341 24.14071533 -126.86303711 23.51513672 C-114.76676473 18.72080426 -102.32623165 15.29664531 -89.73535156 12.06640625 C-89.05810028 11.89243317 -88.380849 11.71846008 -87.68307495 11.53921509 C-58.56847788 4.08650396 -30.05863214 0.52558164 0 0 Z " fill="#FAC568" transform="translate(758.7978515625,137.93359375)"/>
<path d="M0 0 C2.58893324 0.31644102 5.17204816 0.60480946 7.76660156 0.86474609 C18.44726338 1.94701214 28.89746425 3.63434022 39.42041016 5.74584961 C40.20156189 5.90052704 40.98271362 6.05520447 41.78753662 6.21456909 C91.09747776 15.98541721 91.09747776 15.98541721 96.54541016 21.43334961 C96.63289223 23.36002468 96.6523835 25.28986822 96.64306641 27.21850586 C96.63984375 28.38833008 96.63662109 29.5581543 96.63330078 30.76342773 C96.62492187 31.99512695 96.61654297 33.22682617 96.60791016 34.49584961 C96.60339844 35.73141602 96.59888672 36.96698242 96.59423828 38.23999023 C96.58240623 41.30449078 96.56592189 44.36889682 96.54541016 47.43334961 C97.11235596 47.41763916 97.67930176 47.40192871 98.26342773 47.38574219 C122.26059504 46.81351876 148.9008563 48.35538945 167.42236328 65.70092773 C181.60219607 79.73878472 185.74441224 95.58513191 185.85791016 115.18334961 C185.87893589 126.76774849 184.74808649 137.31280055 181.54541016 148.43334961 C181.35817383 149.10253418 181.1709375 149.77171875 180.97802734 150.46118164 C175.28081069 170.37192068 164.71743035 186.59030573 150.54541016 201.43334961 C150.00916016 202.03276367 149.47291016 202.63217773 148.92041016 203.24975586 C130.7428515 222.83607531 101.67309276 235.27351099 75.54541016 238.43334961 C72.30392744 238.54475257 69.07800133 238.53897018 65.83496094 238.51538086 C56.55109811 238.16372636 56.55109811 238.16372636 48.35400391 241.76538086 C46.05943284 244.87402584 44.31039705 248.00053107 42.54541016 251.43334961 C28.66582689 270.36983531 11.22109312 284.61566874 -9.45458984 295.43334961 C-11.11167969 296.3015332 -11.11167969 296.3015332 -12.80224609 297.18725586 C-15.45458984 298.43334961 -15.45458984 298.43334961 -17.45458984 298.43334961 C-13.14688684 318.40082002 -4.72383066 332.19818227 10.48291016 345.74584961 C16.20643562 350.8966915 20.22211993 354.68392229 20.76025391 362.58959961 C20.79140874 365.55277091 20.72284468 368.47610757 20.54541016 371.43334961 C21.29564453 371.36374023 22.04587891 371.29413086 22.81884766 371.22241211 C31.02724512 370.78821476 36.12910241 372.26498429 42.54541016 377.43334961 C47.07770642 381.68837598 49.41752415 385.96514965 49.74072266 392.20288086 C49.72757343 393.55067676 49.70393506 394.89840656 49.67041016 396.24584961 C49.66138672 396.9387207 49.65236328 397.6315918 49.64306641 398.34545898 C49.61967172 400.04157356 49.58380656 401.73750832 49.54541016 403.43334961 C50.63466797 403.40885742 51.72392578 403.38436523 52.84619141 403.35913086 C57.03002515 403.44307261 59.04911483 404.18018151 62.54541016 406.43334961 C66.29089497 410.5837517 67.65907133 412.99978023 67.75073242 418.52563477 C67.77067764 419.58658356 67.79062286 420.64753235 67.81117249 421.7406311 C67.83624123 423.4641127 67.83624123 423.4641127 67.86181641 425.22241211 C67.8825975 426.3959726 67.9033786 427.56953308 67.92478943 428.77865601 C67.99032999 432.53849265 68.04919092 436.29840083 68.10791016 440.05834961 C68.15109108 442.60262793 68.19470523 445.14689894 68.23876953 447.69116211 C68.34601597 453.93848167 68.44777396 460.18587286 68.54541016 466.43334961 C85.44999612 467.87166446 85.44999612 467.87166446 102.38134766 468.92553711 C104.28400391 469.02415039 104.28400391 469.02415039 106.22509766 469.12475586 C108.74282688 469.24984389 111.26111822 469.36398628 113.77978516 469.46850586 C126.48864184 470.16290731 138.79985516 473.69840083 148.02978516 482.91381836 C156.08869244 492.25003612 159.17495315 500.72634071 159.07666016 512.99584961 C159.08048706 514.06778564 159.08431396 515.13972168 159.08825684 516.24414062 C159.09096244 518.49634752 159.08369677 520.74858658 159.06689453 523.00073242 C159.04546677 526.42430486 159.06674392 529.845779 159.09228516 533.26928711 C159.08964164 535.46981252 159.08451618 537.67033664 159.07666016 539.87084961 C159.08475708 540.88155518 159.092854 541.89226074 159.10119629 542.93359375 C158.95925892 553.83057426 155.40649235 561.42632197 147.90087891 569.23803711 C138.9025055 577.62458081 128.54995566 579.97743063 116.48291016 579.80834961 C115.40041992 579.80037354 114.31792969 579.79239746 113.20263672 579.78417969 C104.02064209 579.6305414 94.93792783 578.8383648 85.80499268 577.92089844 C71.34525618 576.47410373 56.86643949 575.60846163 42.35791016 574.80834961 C40.68166565 574.71509903 40.68166565 574.71509903 38.97155762 574.6199646 C35.69030614 574.43827243 32.40892729 574.25919305 29.12744141 574.08178711 C28.18639053 574.03084396 27.24533966 573.97990082 26.27577209 573.92741394 C23.03263081 573.75606648 19.78906326 573.59473043 16.54541016 573.43334961 C15.77037958 573.39258678 14.99534901 573.35182396 14.19683266 573.3098259 C0.43004392 572.58935803 -13.29122388 572.28359765 -27.07568359 572.30053711 C-29.07747916 572.29985958 -31.07927465 572.29888589 -33.08106995 572.29763794 C-37.24489131 572.29617892 -41.40869097 572.29825472 -45.57250977 572.30297852 C-50.8096264 572.30864212 -56.04669194 572.30529436 -61.2838068 572.29956436 C-96.67034085 572.26614664 -131.80951817 573.34971804 -167.11444092 575.76153564 C-170.52530508 575.99338513 -173.93648279 576.22041464 -177.347682 576.44727325 C-181.48108252 576.72226973 -185.61433954 576.99939047 -189.74755859 577.27709961 C-190.51015676 577.32828445 -191.27275494 577.3794693 -192.05846214 577.4322052 C-199.08364641 577.9053952 -206.10578242 578.39091488 -213.12158203 578.99072266 C-218.92639449 579.48621292 -224.69229588 579.68922491 -230.51708984 579.74584961 C-231.51546875 579.77485352 -232.51384766 579.80385742 -233.54248047 579.83374023 C-244.96951639 579.93013963 -254.16879864 576.33074435 -262.45458984 568.43334961 C-273.00089383 557.32206505 -273.07161535 544.41297003 -272.92114258 529.92675781 C-272.89212328 526.87436664 -272.90057454 523.82371116 -272.91357422 520.77124023 C-272.90733675 518.80313296 -272.89894574 516.83503109 -272.88818359 514.86694336 C-272.89111923 513.96874374 -272.89405487 513.07054413 -272.89707947 512.14512634 C-272.7218194 500.19773325 -268.72594799 491.12106348 -260.57177734 482.42553711 C-247.18081309 469.90200374 -229.77838841 469.66792435 -212.39208984 468.24584961 C-210.87035156 468.11980347 -210.87035156 468.11980347 -209.31787109 467.99121094 C-200.02880629 467.31143365 -190.76189675 467.35701208 -181.45458984 467.43334961 C-181.46791351 466.45735306 -181.46791351 466.45735306 -181.48150635 465.4616394 C-181.57009818 458.68081458 -181.63037357 451.90015457 -181.67431641 445.11889648 C-181.69441389 442.58920614 -181.72169652 440.05956215 -181.75634766 437.5300293 C-181.80494541 433.89091544 -181.82757796 430.25241661 -181.84521484 426.61303711 C-181.86585999 425.48469452 -181.88650513 424.35635193 -181.90777588 423.19381714 C-181.91016971 414.78996708 -180.50466993 411.6220697 -174.70458984 405.55834961 C-170.49508379 402.80598027 -168.37822794 403.00889805 -163.45458984 403.43334961 C-163.50099609 402.67151367 -163.54740234 401.90967773 -163.59521484 401.12475586 C-163.89947914 392.42062364 -162.79789571 386.29101023 -157.01708984 379.62084961 C-155.74865234 378.53803711 -155.74865234 378.53803711 -154.45458984 377.43334961 C-153.73271484 376.73209961 -153.01083984 376.03084961 -152.26708984 375.30834961 C-146.90485706 371.73352775 -140.87370609 370.20409546 -134.45458984 370.43334961 C-134.57833984 369.52584961 -134.70208984 368.61834961 -134.82958984 367.68334961 C-134.69229971 360.81884277 -131.42370519 354.56170817 -126.76123047 349.64916992 C-124.08352443 347.08747052 -121.32971759 344.61781358 -118.56860352 342.14672852 C-106.0269773 330.7978218 -97.92710163 317.55219407 -96.45458984 300.43334961 C-97.51935547 299.89967773 -98.58412109 299.36600586 -99.68115234 298.81616211 C-113.73635119 291.6509582 -126.04481675 283.41674852 -137.45458984 272.43334961 C-137.9748877 271.94415039 -138.49518555 271.45495117 -139.03125 270.95092773 C-148.68543202 261.85087961 -159.45705095 251.42842739 -165.45458984 239.43334961 C-166.0967041 239.42924072 -166.73881836 239.42513184 -167.40039062 239.42089844 C-207.88763247 238.97151953 -240.23098016 225.57290927 -268.89208984 197.00366211 C-279.02148958 186.27634642 -285.62833962 173.85183783 -291.45458984 160.43334961 C-291.96892578 159.2822168 -292.48326172 158.13108398 -293.01318359 156.94506836 C-298.31992165 144.01618621 -298.8376389 131.25222296 -298.82958984 117.49584961 C-298.83131195 116.73695435 -298.83303406 115.97805908 -298.83480835 115.19616699 C-298.83009444 96.80796159 -295.91980649 81.26057115 -282.91015625 67.56396484 C-266.06603563 50.90862911 -242.66648724 47.25914782 -219.95458984 47.30834961 C-216.81958984 47.34959961 -213.68458984 47.39084961 -210.45458984 47.43334961 C-210.45458984 38.52334961 -210.45458984 29.61334961 -210.45458984 20.43334961 C-183.77484949 11.7253788 -155.93599991 4.69460117 -127.98095703 1.73022461 C-124.84998551 1.36230217 -121.73724865 0.89825832 -118.61865234 0.43725586 C-79.98548504 -5.12205019 -38.68914758 -4.88245984 0 0 Z " fill="#2B2B29" transform="translate(824.45458984375,268.566650390625)"/>
<path d="M0 0 C3.64784503 0.01135106 7.29539673 0.0046385 10.94323158 -0.0068779 C33.13202511 -0.0662942 55.31122843 0.50655358 77.26806641 4.01074219 C78.35023438 4.17775635 79.43240234 4.34477051 80.54736328 4.5168457 C103.32697291 8.11608856 126.22105058 11.95340358 148.14306641 19.26074219 C148.14306641 28.17074219 148.14306641 37.08074219 148.14306641 46.26074219 C144.84306641 45.60074219 141.54306641 44.94074219 138.14306641 44.26074219 C101.8967069 37.27430878 101.8967069 37.27430878 65.14306641 35.26074219 C64.76087874 36.91688876 64.42911539 38.58531243 64.14306641 40.26074219 C65.94199119 42.05966698 68.69100837 41.58328069 71.12744141 41.72558594 C72.37396484 41.80357422 73.62048828 41.8815625 74.90478516 41.96191406 C77.51669792 42.1166846 80.12867517 42.27037163 82.74072266 42.42285156 C90.9751002 42.9401286 99.01395978 43.85775248 107.14306641 45.26074219 C108.07828125 45.41631592 109.01349609 45.57188965 109.97705078 45.73217773 C122.56122674 47.85174865 135.01361226 50.21759081 147.14306641 54.26074219 C147.35482621 67.82241888 146.84696657 81.13909989 145.51806641 94.63574219 C145.38851562 95.98739975 145.38851562 95.98739975 145.25634766 97.36636353 C143.64406793 113.95119431 140.95808986 130.03377058 137.14306641 146.26074219 C136.97339355 147.02161133 136.8037207 147.78248047 136.62890625 148.56640625 C129.3610444 181.11552956 114.48602267 215.26431952 92.14306641 240.26074219 C91.28068359 241.24300781 90.41830078 242.22527344 89.52978516 243.23730469 C68.3584813 267.06399242 41.22942829 283.93374155 9.14306641 287.26074219 C5.01025548 287.38426331 1.20836805 286.99391226 -2.85693359 286.26074219 C-3.79956055 286.09227783 -3.79956055 286.09227783 -4.76123047 285.92041016 C-27.92419783 281.59805471 -47.6405443 270.11570367 -64.85693359 254.26074219 C-66.23945312 253.00197266 -66.23945312 253.00197266 -67.64990234 251.71777344 C-79.31869954 240.58779516 -88.95425511 227.28009382 -96.85693359 213.26074219 C-97.43024414 212.26131592 -97.43024414 212.26131592 -98.01513672 211.24169922 C-105.48578003 198.12071594 -110.92228001 184.50923147 -115.85693359 170.26074219 C-116.11313477 169.53322754 -116.36933594 168.80571289 -116.63330078 168.05615234 C-123.79332325 147.52088105 -127.78057674 125.74036648 -130.85693359 104.26074219 C-131.00791504 103.21418457 -131.15889648 102.16762695 -131.31445312 101.08935547 C-133.55613094 85.08808028 -134.26535021 69.40890673 -133.85693359 53.26074219 C-129.52024938 52.29643505 -125.18265567 51.33635428 -120.84423828 50.37988281 C-119.37394057 50.05514661 -117.90388041 49.7293326 -116.43408203 49.40234375 C-104.62389335 46.77606714 -92.84449739 44.42981982 -80.79443359 43.19824219 C-80.00439941 43.11517822 -79.21436523 43.03211426 -78.40039062 42.9465332 C-71.52342469 42.25720989 -64.64115411 41.86771149 -57.7355957 41.60229492 C-53.98709463 41.79742981 -53.98709463 41.79742981 -50.85693359 40.26074219 C-50.81629527 38.59457104 -50.81421259 36.92686124 -50.85693359 35.26074219 C-77.12911849 34.64817829 -104.09641255 38.05908122 -129.30224609 45.56152344 C-131.85693359 46.26074219 -131.85693359 46.26074219 -134.85693359 46.26074219 C-134.85693359 37.35074219 -134.85693359 28.44074219 -134.85693359 19.26074219 C-114.20604627 13.05103481 -93.43974324 8.77818355 -72.12207031 5.60791016 C-69.82241079 5.25545102 -67.52934905 4.87377272 -65.23583984 4.48339844 C-43.51865544 0.80821034 -21.98619223 -0.06902381 0 0 Z " fill="#FDBF4A" transform="translate(760.85693359375,278.7392578125)"/>
<path d="M0 0 C1.412883 0.0438382 1.412883 0.0438382 2.85430908 0.08856201 C27.563783 0.8566759 52.21747215 2.1581083 76.875 3.9375 C78.01923431 4.01690826 79.16346863 4.09631653 80.34237671 4.1781311 C83.60170488 4.4071449 86.85942673 4.65211998 90.1171875 4.90234375 C91.07239792 4.96801544 92.02760834 5.03368713 93.01176453 5.10134888 C104.71212498 6.04873334 116.2458187 9.42881555 124.375 18.375 C128.96889319 24.24425164 132.0561937 30.63619079 132.19287109 38.15087891 C132.21696548 39.36331772 132.21696548 39.36331772 132.24154663 40.60025024 C132.2864609 44.29908011 132.32708362 47.99773771 132.35009766 51.69677734 C132.3666089 53.63830594 132.39383471 55.57977497 132.43212891 57.52099609 C132.86322548 79.52191584 132.86322548 79.52191584 125.11889648 88.07836914 C119.03281326 94.13155017 112.15261694 97.16946567 103.55278015 97.22990417 C102.87020645 97.22364517 102.18763275 97.21738617 101.484375 97.2109375 C100.37767204 97.20499321 100.37767204 97.20499321 99.24861145 97.19892883 C90.68060596 97.08149787 82.17969043 96.26332016 73.65393066 95.46130371 C-24.32885689 86.41742105 -124.85514242 86.11199146 -232.55957031 96.52563477 C-237.34325887 97.18520806 -242.05238951 97.26342323 -246.875 97.3125 C-247.81730469 97.34150391 -248.75960937 97.37050781 -249.73046875 97.40039062 C-259.32019928 97.48660535 -266.25944901 94.42054913 -273.2734375 87.9375 C-277.51167207 83.18147207 -280.07246116 77.16239189 -280.20874023 70.79492188 C-280.22803085 69.94973999 -280.24732147 69.10455811 -280.26719666 68.23376465 C-280.3253595 64.34892387 -280.3742785 60.46426326 -280.4050293 56.57910156 C-280.42652722 54.54051692 -280.46053148 52.50202249 -280.50756836 50.46386719 C-281.00501989 28.68929863 -281.00501989 28.68929863 -274 20 C-273.45601562 19.31510498 -272.91203125 18.63020996 -272.3515625 17.92456055 C-263.05435106 6.98711687 -249.41824303 5.88540898 -236.09390259 4.75302124 C-227.94247608 4.09775982 -219.78472314 3.540599 -211.625 3 C-209.66954758 2.87026794 -209.66954758 2.87026794 -207.67459106 2.73791504 C-198.4514647 2.12962517 -189.22654865 1.55414337 -180 1 C-178.92284729 0.93514404 -177.84569458 0.87028809 -176.73590088 0.8034668 C-118.03548561 -2.67350801 -58.75286064 -1.89829212 0 0 Z " fill="#FAFAFA" transform="translate(842,742)"/>
<path d="M0 0 C28.64664856 -0.02202676 57.29329056 -0.04049809 85.93994549 -0.05106533 C89.31844349 -0.0523161 92.69694148 -0.05361042 96.07543945 -0.05493164 C96.74806547 -0.05519395 97.42069148 -0.05545626 98.1137001 -0.05572652 C109.01882419 -0.06008324 119.92394303 -0.0679708 130.829064 -0.0771528 C142.01054082 -0.08648928 153.19201583 -0.0919807 164.37349659 -0.09408849 C170.65739874 -0.09539602 176.94128896 -0.09848453 183.2251873 -0.10573006 C189.13231851 -0.11248637 195.03943283 -0.11461776 200.94656754 -0.11310768 C203.12148823 -0.11338419 205.29640946 -0.1153916 207.47132683 -0.11920547 C210.4268642 -0.12413666 213.38233668 -0.12300043 216.33787537 -0.12025452 C217.21042589 -0.12316736 218.08297642 -0.1260802 218.98196787 -0.12908131 C224.88587879 -0.11412121 224.88587879 -0.11412121 226 1 C226.09333705 2.59610982 226.11745372 4.19633428 226.11352539 5.79516602 C226.11344986 6.81614883 226.11337433 7.83713165 226.11329651 8.88905334 C226.10813522 9.9994548 226.10297394 11.10985626 226.09765625 12.25390625 C226.09553383 13.94978127 226.09553383 13.94978127 226.09336853 15.67991638 C226.08775019 19.30747065 226.07519458 22.93496424 226.0625 26.5625 C226.05748736 29.01497307 226.05292405 31.4674471 226.04882812 33.91992188 C226.0377748 39.94663545 226.02101884 45.97331339 226 52 C225.18743744 51.97127304 224.37487488 51.94254608 223.53768921 51.91294861 C222.45194611 51.87456375 221.366203 51.83617889 220.24755859 51.79663086 C219.11404968 51.75649872 217.98054077 51.71636658 216.81268311 51.67501831 C214.49185204 51.593098 212.17098518 51.5121897 209.85009766 51.43188477 C204.35882854 51.23285256 198.88393837 50.99786385 193.40161133 50.6250124 C180.31296388 49.77672434 167.21616732 49.83532324 154.10532379 49.83274293 C152.03414148 49.83202137 149.9629654 49.82986643 147.89178467 49.82724571 C140.5878458 49.81803243 133.28392495 49.81390427 125.97998047 49.81469727 C120.03626783 49.81522631 114.09262152 49.80825772 108.14892578 49.79418945 C75.9588134 49.71956742 43.84192932 49.76341031 11.70043945 51.81938171 C7.80446644 52.00954398 3.90061115 52 0 52 C0 34.84 0 17.68 0 0 Z " fill="#FCBD46" transform="translate(655,683)"/>
<path d="M0 0 C15.13481673 -0.72070556 30.70579939 3.23526646 45 8 C45.2117598 21.56167669 44.70390016 34.8783577 43.375 48.375 C43.24544922 49.72665756 43.24544922 49.72665756 43.11328125 51.10562134 C41.50100152 67.69045212 38.81502346 83.77302839 35 100 C34.83032715 100.76086914 34.6606543 101.52173828 34.48583984 102.30566406 C27.21797799 134.85478737 12.34295626 169.00357733 -10 194 C-11.29357422 195.47339844 -11.29357422 195.47339844 -12.61328125 196.9765625 C-28.18704862 214.50364984 -45.88834447 227.41233727 -68 235.4375 C-69.05912598 235.82651489 -69.05912598 235.82651489 -70.13964844 236.22338867 C-74.22377013 237.63978233 -77.68254516 238.27658695 -82 238 C-81.236875 237.13375 -80.47375 236.2675 -79.6875 235.375 C-75.09854965 230.01045241 -70.75411436 224.45400902 -66.44238281 218.86621094 C-65.51641539 217.6681583 -64.58641259 216.47320763 -63.65136719 215.28222656 C-48.09828278 195.41076534 -37.31925875 173.32999798 -28 150 C-27.66500488 149.17467773 -27.33000977 148.34935547 -26.98486328 147.49902344 C-22.82910582 137.22055671 -19.77815111 126.71709545 -17 116 C-16.82227051 115.32469238 -16.64454102 114.64938477 -16.46142578 113.95361328 C-13.59878508 103.04869935 -11.20313303 92.05567933 -9 81 C-8.86207031 80.31921387 -8.72414063 79.63842773 -8.58203125 78.93701172 C-5.80946482 65.07761095 -4.45474028 51.0470059 -3 37 C-2.80120885 35.13927718 -2.60202252 33.27859652 -2.40234375 31.41796875 C-1.29797791 20.95675667 -0.51715377 10.5063871 0 0 Z " fill="#FDD35E" transform="translate(863,325)"/>
<path d="M0 0 C0.02578125 0.95390625 0.0515625 1.9078125 0.078125 2.890625 C2.76981419 77.78080003 20.21189117 178.84832764 76.32421875 233.234375 C79 236 79 236 79 238 C73.7839008 237.45623676 69.36439534 236.20898877 64.5625 234.0625 C63.87438232 233.75602539 63.18626465 233.44955078 62.47729492 233.13378906 C49.2441394 227.04259899 37.68585292 218.84084314 27 209 C25.61748047 207.74123047 25.61748047 207.74123047 24.20703125 206.45703125 C12.53823405 195.32705297 2.90267848 182.01935163 -5 168 C-5.57331055 167.00057373 -5.57331055 167.00057373 -6.15820312 165.98095703 C-13.62884643 152.85997375 -19.06534641 139.24848928 -24 125 C-24.25620117 124.27248535 -24.51240234 123.5449707 -24.77636719 122.79541016 C-31.93638966 102.26013886 -35.92364314 80.47962429 -39 59 C-39.22647217 57.43016357 -39.22647217 57.43016357 -39.45751953 55.82861328 C-41.69919735 39.8273381 -42.40841661 24.14816454 -42 8 C-37.5529972 7.01945918 -33.10555857 6.04092818 -28.65771484 5.06420898 C-27.1465274 4.732071 -25.6354578 4.39939637 -24.12451172 4.06616211 C-21.94529936 3.58564363 -19.76566223 3.10709441 -17.5859375 2.62890625 C-16.91694427 2.48095108 -16.24795105 2.33299591 -15.5586853 2.18055725 C-10.32560777 1.03562861 -5.36762239 0 0 0 Z " fill="#ECA044" transform="translate(669,324)"/>
<path d="M0 0 C0.66 0 1.32 0 2 0 C6.55665835 8.52263877 11.08268644 17.05957669 15.4375 25.6875 C15.76685547 26.33332031 16.09621094 26.97914063 16.43554688 27.64453125 C18.29381848 31.35331551 19.78746328 35.03335979 21 39 C21.99 39.03867187 21.99 39.03867187 23 39.078125 C30.86779136 39.52888388 38.54343635 40.64265606 46.3125 41.9375 C47.33794922 42.10733398 48.36339844 42.27716797 49.41992188 42.45214844 C55.02286233 43.40781567 60.50748736 44.53664239 66 46 C60.78407861 52.23366215 55.35731073 58.01167669 49.1875 63.3125 C48.53265625 63.89386719 47.8778125 64.47523438 47.203125 65.07421875 C45.58114557 66.49201282 43.91821438 67.86328937 42.234375 69.20703125 C41.31140625 70.00496094 40.3884375 70.80289063 39.4375 71.625 C38.13619141 72.69621094 38.13619141 72.69621094 36.80859375 73.7890625 C32.16728466 82.02914041 36.7268437 94.62943488 38.5625 103.4375 C39.02739175 105.68511712 39.48720833 107.93379125 39.94140625 110.18359375 C40.24606812 111.64623657 40.24606812 111.64623657 40.55688477 113.13842773 C41.02105925 116.13599748 41.07599814 118.97157245 41 122 C36.39704802 120.61491719 32.31416135 118.69253952 28.125 116.375 C26.80814149 115.6611904 25.4904007 114.94900656 24.171875 114.23828125 C23.49189453 113.8717041 22.81191406 113.50512695 22.11132812 113.12744141 C18.55477886 111.22825726 14.97123077 109.38522425 11.375 107.5625 C10.71258301 107.2207373 10.05016602 106.87897461 9.36767578 106.52685547 C4.39356829 103.98974748 4.39356829 103.98974748 -1 103 C-3.99412561 104.05552085 -6.72425764 105.5496046 -9.51171875 107.05859375 C-10.32115433 107.48173355 -11.1305899 107.90487335 -11.96455383 108.34083557 C-14.54606044 109.69321497 -17.11695682 111.06441333 -19.6875 112.4375 C-22.27045232 113.80347748 -24.85542211 115.16546026 -27.44258118 116.52345276 C-29.05139313 117.36937494 -30.65743335 118.2205931 -32.26042175 119.07749939 C-37.77962659 122 -37.77962659 122 -40 122 C-39.55370684 116.37435728 -38.84991328 110.98405858 -37.5390625 105.49609375 C-36.64758551 101.36816768 -36.07528408 97.19285304 -35.46484375 93.015625 C-35.04971436 90.3225167 -34.54015291 87.67002412 -34 85 C-33.38069733 81.79832204 -33.20072608 79.18671551 -34 76 C-36.58036641 72.50891603 -39.69544412 69.7953633 -43 67 C-44.25050304 65.91724737 -45.50052869 64.83394306 -46.75 63.75 C-47.38421875 63.20730469 -48.0184375 62.66460937 -48.671875 62.10546875 C-53.991359 57.29472735 -58.96454457 52.10453943 -64 47 C-60.67880906 44.03484963 -58.02902737 43.44413521 -53.65234375 42.90234375 C-52.40646484 42.74056641 -51.16058594 42.57878906 -49.87695312 42.41210938 C-48.57693359 42.25548828 -47.27691406 42.09886719 -45.9375 41.9375 C-40.95585534 41.30943442 -35.97666227 40.66642869 -31 40 C-29.91372314 39.86110352 -28.82744629 39.72220703 -27.70825195 39.57910156 C-26.72687256 39.43311523 -25.74549316 39.28712891 -24.734375 39.13671875 C-23.8794043 39.01643311 -23.02443359 38.89614746 -22.14355469 38.7722168 C-19.32624384 37.75727896 -18.66456012 36.49387653 -17.3125 33.875 C-16.53185434 31.92055741 -15.76244753 29.96161343 -15 28 C-13.73881806 25.32806388 -12.40027545 22.69675003 -11.0625 20.0625 C-10.72057617 19.37841064 -10.37865234 18.69432129 -10.02636719 17.98950195 C-2.05754582 2.05754582 -2.05754582 2.05754582 0 0 Z " fill="#FDFDFB" transform="translate(767,328)"/>
<path d="M0 0 C0.15855469 0.72703125 0.31710937 1.4540625 0.48046875 2.203125 C5.29168975 22.93656355 15.67389574 38.22093084 31.8359375 51.89453125 C34.23747304 54.23104327 35.66537323 55.91313744 37 59 C37 61.97 37 64.94 37 68 C-5.9 68 -48.8 68 -93 68 C-93 56 -93 56 -91 52.6875 C-90.03433608 51.75475644 -89.02977241 50.86144422 -88 50 C-87.360625 49.42765625 -86.72125 48.8553125 -86.0625 48.265625 C-84.68880814 47.04803448 -83.30460995 45.84219413 -81.91015625 44.6484375 C-79.47204731 42.54438439 -77.21976604 40.3336002 -75 38 C-74.46761719 37.45085938 -73.93523438 36.90171875 -73.38671875 36.3359375 C-64.09311055 26.32109585 -58.4789397 14.39113502 -56 1 C-54.60386935 1.14295891 -53.20810692 1.28951558 -51.8125 1.4375 C-51.03519531 1.51871094 -50.25789062 1.59992187 -49.45703125 1.68359375 C-47 2 -47 2 -44.75 2.51953125 C-33.42620058 4.49797916 -21.62514422 3.16635058 -10.515625 0.65625 C-6.92888912 -0.01327403 -3.63968333 -0.11199026 0 0 Z " fill="#FDBF49" transform="translate(797,572)"/>
<path d="M0 0 C8.24355727 -0.31660889 15.40637493 -0.42890435 23 3 C23.68578125 3.29003906 24.3715625 3.58007812 25.078125 3.87890625 C33.1025638 7.53890792 39.21970471 12.94386508 43 21 C45.1115026 26.85629293 45.30289462 32.17231586 45.25 38.3125 C45.26160156 39.6418457 45.26160156 39.6418457 45.2734375 40.99804688 C45.21531232 60.92045313 36.60344732 79.11615892 22.8125 93.24609375 C10.54779351 105.25528552 -5.61477218 114.41952474 -23 116 C-22.39224819 112.57227982 -21.50949716 109.49165662 -20.25 106.25 C-15.40561737 93.15612522 -11.95847512 79.62969488 -9 66 C-8.74669922 64.83428467 -8.74669922 64.83428467 -8.48828125 63.64501953 C-3.964812 42.55391903 -1.49111575 21.51008081 0 0 Z " fill="#FAFAF9" transform="translate(920,352)"/>
<path d="M0 0 C0.90403884 4.01393244 1.28476302 7.94514112 1.578125 12.046875 C1.68422129 13.45076574 1.79144549 14.85457159 1.8996582 16.25830078 C1.95610504 16.99083069 2.01255188 17.7233606 2.07070923 18.47808838 C3.29082345 33.93896048 5.41755659 48.88819608 9 64 C9.24153809 65.03366699 9.48307617 66.06733398 9.73193359 67.13232422 C12.66845041 79.59288643 16.03677698 91.82925128 20 104 C21.01720606 107.32829821 22.01321169 110.66256963 23 114 C6.65595897 112.47962409 -7.88774281 104.7957075 -20 94 C-20.77085937 93.32324219 -21.54171875 92.64648438 -22.3359375 91.94921875 C-35.95157086 79.23974529 -44.37578476 60.93143757 -45.35546875 42.41015625 C-45.41475112 40.37789775 -45.4628545 38.34528361 -45.5 36.3125 C-45.5306958 35.35053711 -45.5613916 34.38857422 -45.59301758 33.39746094 C-45.59515743 25.08056586 -42.9971273 19.12895386 -38.1484375 12.44921875 C-33.03161612 7.36620896 -27.76034398 4.46283918 -21 2 C-20.33226562 1.75378906 -19.66453125 1.50757813 -18.9765625 1.25390625 C-12.81616283 -0.6306042 -6.37331499 -0.17487755 0 0 Z " fill="#FAFAF9" transform="translate(615,353)"/>
<path d="M0 0 C0 3.96 0 7.92 0 12 C-1.835625 12.0825 -3.67125 12.165 -5.5625 12.25 C-21.58571945 13.50809357 -34.82099699 18.3569629 -46 30 C-56.64405741 42.67825505 -57.09436751 57.18957416 -56 73 C-53.89157245 94.40899112 -43.83363215 115.5344217 -27.1015625 129.359375 C-26.40804687 129.90078125 -25.71453125 130.4421875 -25 131 C-24.28585937 131.56203125 -23.57171875 132.1240625 -22.8359375 132.703125 C-11.64897575 141.00916349 3.22394897 149.22648839 17.2734375 150.41015625 C28.5468142 151.48716852 28.5468142 151.48716852 31.43945312 154.49853516 C34.02806333 158.38250275 35.60095177 162.56870497 37 167 C8.81878416 167.98881459 -20.09891605 156.81622049 -41 138 C-41.57298828 137.48598633 -42.14597656 136.97197266 -42.73632812 136.44238281 C-63.05760668 117.88578918 -77.49057556 91.79525341 -79.12280273 63.90136719 C-79.70252753 47.669073 -78.61320903 32.24956998 -67.73828125 19.30859375 C-49.59702343 0.19904273 -24.73293611 -0.48868589 0 0 Z " fill="#E99D44" transform="translate(615,328)"/>
<path d="M0 0 C23.24107813 -0.49605463 45.92692804 0.0338195 64.1875 16.5 C74.28169535 27.12654642 77.36120801 40.82566584 77.31567383 55.00366211 C77.31254455 57.03360323 77.33590987 59.06203851 77.36132812 61.09179688 C77.48166565 85.4266363 68.49527501 106.56541509 53 125 C52.33484375 125.85078125 51.6696875 126.7015625 50.984375 127.578125 C33.12491823 149.3750998 2.15405694 161.33053285 -25 165 C-29.01831177 165.20027641 -32.98267812 165.20543123 -37 165 C-35.68266042 159.73776245 -34.07079919 154.77098013 -30 151 C-23.70420532 148.16446943 -16.57347171 147.58259035 -9.80664062 146.52294922 C9.90486643 142.85018929 29.29070292 129.08565039 41.078125 113.19921875 C42.8256199 110.51339507 44.44439427 107.80090691 46 105 C46.46019531 104.17757812 46.92039062 103.35515625 47.39453125 102.5078125 C56.47590205 85.33277285 60.61123155 63.75917198 55.0390625 44.77734375 C49.83365767 30.8636489 41.67596428 23.33798214 28.6171875 16.80859375 C19.57418091 12.96744205 9.68549058 12.72095718 0 12 C0 8.04 0 4.08 0 0 Z " fill="#FBD25E" transform="translate(921,329)"/>
<path d="M0 0 C0.96930536 -0.00551503 0.96930536 -0.00551503 1.95819265 -0.01114148 C4.12751671 -0.02217062 6.29679285 -0.02602085 8.46614075 -0.02983093 C10.0200872 -0.03609623 11.57403215 -0.04274309 13.12797546 -0.04974365 C18.23523415 -0.0707808 23.34249311 -0.08114658 28.44978333 -0.09111023 C30.20881478 -0.09515809 31.96784608 -0.09927502 33.72687721 -0.10346031 C41.99220942 -0.12251223 50.2575327 -0.13674254 58.52288264 -0.14507228 C68.05861283 -0.15484127 77.59411068 -0.1811519 87.12975901 -0.22157317 C94.50313391 -0.2517541 101.87644229 -0.26654308 109.24987775 -0.26985329 C113.65219608 -0.27220178 118.0542662 -0.28113575 122.45651817 -0.30631447 C126.60080079 -0.32963451 130.74467247 -0.33381276 134.88900375 -0.32355309 C136.40630143 -0.32305854 137.92361961 -0.32935487 139.44085503 -0.34310913 C147.39761299 -0.41117742 153.84814461 -0.3920617 160.65681458 4.14717102 C166.39721939 9.88757584 164.65681458 12.96942146 164.65681458 22.14717102 C104.59681458 22.14717102 44.53681458 22.14717102 -17.34318542 22.14717102 C-17.34318542 8.48050435 -17.34318542 8.48050435 -13.34318542 4.14717102 C-9.08763557 0.40744539 -5.55295464 0.02046849 0 0 Z " fill="#FDBF47" transform="translate(694.3431854248047,649.8528289794922)"/>
<path d="M0 0 C28.64664856 -0.02202676 57.29329056 -0.04049809 85.93994549 -0.05106533 C89.31844349 -0.0523161 92.69694148 -0.05361042 96.07543945 -0.05493164 C96.74806547 -0.05519395 97.42069148 -0.05545626 98.1137001 -0.05572652 C109.01882419 -0.06008324 119.92394303 -0.0679708 130.829064 -0.0771528 C142.01054082 -0.08648928 153.19201583 -0.0919807 164.37349659 -0.09408849 C170.65739874 -0.09539602 176.94128896 -0.09848453 183.2251873 -0.10573006 C189.13231851 -0.11248637 195.03943283 -0.11461776 200.94656754 -0.11310768 C203.12148823 -0.11338419 205.29640946 -0.1153916 207.47132683 -0.11920547 C210.4268642 -0.12413666 213.38233668 -0.12300043 216.33787537 -0.12025452 C217.21042589 -0.12316736 218.08297642 -0.1260802 218.98196787 -0.12908131 C224.88587879 -0.11412121 224.88587879 -0.11412121 226 1 C226.09333705 2.59610982 226.11745372 4.19633428 226.11352539 5.79516602 C226.11344986 6.81614883 226.11337433 7.83713165 226.11329651 8.88905334 C226.10813522 9.9994548 226.10297394 11.10985626 226.09765625 12.25390625 C226.09553383 13.94978127 226.09553383 13.94978127 226.09336853 15.67991638 C226.08775019 19.30747065 226.07519458 22.93496424 226.0625 26.5625 C226.05748736 29.01497307 226.05292405 31.4674471 226.04882812 33.91992188 C226.0386237 39.94665704 226.01905186 45.97326022 226 52 C217.09 51.67 208.18 51.34 199 51 C199 50.67 199 50.34 199 50 C201.97 50 204.94 50 208 50 C208 33.83 208 17.66 208 1 C153.88 1 99.76 1 44 1 C44 16.84 44 32.68 44 49 C45.98 49 47.96 49 50 49 C50 49.33 50 49.66 50 50 C44.16515758 50.28731021 38.3301976 50.57205662 32.49511719 50.85449219 C30.51266147 50.95080321 28.53023885 51.04779835 26.54785156 51.14550781 C23.68823675 51.28633306 20.82850946 51.42464711 17.96875 51.5625 C17.09134155 51.60624756 16.21393311 51.64999512 15.30993652 51.69506836 C14.46966919 51.73510986 13.62940186 51.77515137 12.76367188 51.81640625 C11.67113098 51.86970093 11.67113098 51.86970093 10.55651855 51.92407227 C7.03913896 52.02853725 3.51893054 52 0 52 C0 34.84 0 17.68 0 0 Z " fill="#DE9740" transform="translate(655,683)"/>
<path d="M0 0 C1.60463449 0.31008884 3.20869231 0.62316287 4.8125 0.9375 C5.70582031 1.11152344 6.59914063 1.28554688 7.51953125 1.46484375 C10 2 10 2 13 3 C13.2117598 16.56167669 12.70390016 29.8783577 11.375 43.375 C11.24544922 44.72665756 11.24544922 44.72665756 11.11328125 46.10562134 C9.50100152 62.69045212 6.81502346 78.77302839 3 95 C2.83032715 95.76086914 2.6606543 96.52173828 2.48583984 97.30566406 C-4.78202201 129.85478737 -19.65704374 164.00357733 -42 189 C-42.86238281 189.98226562 -43.72476563 190.96453125 -44.61328125 191.9765625 C-50.62348551 198.7369721 -56.91431273 205.35144507 -64 211 C-64.66 211 -65.32 211 -66 211 C-64.70486945 208.18685597 -63.58253408 206.5418057 -61.4375 204.1875 C-44.26658465 184.55166006 -33.92591652 155.43669919 -26.0625 131.02734375 C-25 128 -25 128 -23.5859375 124.890625 C-21.33584267 119.71780662 -20.031606 114.26177552 -18.625 108.8125 C-18.16710083 107.04519531 -18.16710083 107.04519531 -17.69995117 105.2421875 C-14.9652485 94.39235692 -12.97806366 83.46576932 -11.12109375 72.4375 C-10.21318438 67.07606447 -9.09382255 61.79732503 -7.875 56.5 C-4.3347141 40.68331434 -3.20276442 24.22504362 -2.36791992 8.06958008 C-2.00587536 5.04901854 -1.26751379 2.75060423 0 0 Z " fill="#FBBE49" transform="translate(895,330)"/>
<path d="M0 0 C1.76754307 1.76754307 1.34141986 4.36390346 1.5078125 6.76953125 C2.79390943 23.6594071 4.77099293 40.33175722 7.4375 57.0625 C7.58262024 57.9881778 7.72774048 58.91385559 7.8772583 59.86758423 C9.69959433 71.42404598 12.01432263 82.69169634 15 94 C15.39720532 95.6726269 15.78779846 97.34685664 16.16796875 99.0234375 C24.15643059 133.53654416 38.03273478 169.57803635 58 199 C50.21676377 197.65663571 45.04794486 188.81424427 40.5625 182.875 C39.99684326 182.12782715 39.43118652 181.3806543 38.84838867 180.61083984 C34.1240097 174.2959087 29.87695561 167.87771925 26 161 C25.42668945 160.00057373 25.42668945 160.00057373 24.84179688 158.98095703 C17.37115357 145.85997375 11.93465359 132.24848928 7 118 C6.74379883 117.27248535 6.48759766 116.5449707 6.22363281 115.79541016 C-0.93638966 95.26013886 -4.92364314 73.47962429 -8 52 C-8.22647217 50.43016357 -8.22647217 50.43016357 -8.45751953 48.82861328 C-10.69919735 32.8273381 -11.40841661 17.14816454 -11 1 C-7.2644843 -0.03901761 -3.8822667 -0.14650063 0 0 Z " fill="#FABF4A" transform="translate(638,331)"/>
<path d="M0 0 C0.15855469 0.72703125 0.31710937 1.4540625 0.48046875 2.203125 C5.29168975 22.93656355 15.67389574 38.22093084 31.8359375 51.89453125 C34.23747304 54.23104327 35.66537323 55.91313744 37 59 C37 61.97 37 64.94 37 68 C26.44 68 15.88 68 5 68 C4.34 65.03 3.68 62.06 3 59 C0.37773572 52.77534644 -3.45860135 47.2846356 -7.375 41.8125 C-15.33171862 30.6515301 -23.32157936 17.02889978 -23 3 C-20.48056604 2.49187886 -17.95983127 1.99335466 -15.4375 1.5 C-14.73302734 1.35691406 -14.02855469 1.21382812 -13.30273438 1.06640625 C-8.78109762 0.19125075 -4.60512972 -0.14523405 0 0 Z " fill="#FDD25C" transform="translate(797,572)"/>
<path d="M0 0 C5.23784666 4.48022956 8.57547421 9.29992261 9.37109375 16.234375 C9.53714107 25.02511565 8.60624072 30.97616053 2.578125 37.55078125 C-2.75762502 42.41319861 -8.62021921 44.56343105 -15.734375 44.28515625 C-22.36237888 43.45094197 -27.26803798 40.73196202 -32 36 C-37.05549119 28.95784614 -37.82072586 21.45704475 -37 13 C-35.17244296 6.30671786 -30.55767959 1.90335084 -25 -2 C-16.62980149 -6.01072012 -7.92460893 -4.23353364 0 0 Z " fill="#2B2B2B" transform="translate(885,768)"/>
<path d="M0 0 C1.39613065 0.14295891 2.79189308 0.28951558 4.1875 0.4375 C4.96480469 0.51871094 5.74210938 0.59992187 6.54296875 0.68359375 C9 1 9 1 11.1875 1.5 C15.37372182 2.24421721 19.56979619 2.36950602 23.8125 2.5625 C24.69615234 2.60568359 25.57980469 2.64886719 26.49023438 2.69335938 C28.65999623 2.79891536 30.8299791 2.89991071 33 3 C33 3.33 33 3.66 33 4 C29.04 4 25.08 4 21 4 C20.9175 5.0725 20.835 6.145 20.75 7.25 C19.06143868 20.36526396 12.68047836 31.46165319 5 41.9375 C-0.73736661 49.76381253 -5.38398727 57.30392363 -7 67 C-16.9 67 -26.8 67 -37 67 C-37 55 -37 55 -35 51.6875 C-34.03433608 50.75475644 -33.02977241 49.86144422 -32 49 C-31.360625 48.42765625 -30.72125 47.8553125 -30.0625 47.265625 C-28.68880814 46.04803448 -27.30460995 44.84219413 -25.91015625 43.6484375 C-23.47204731 41.54438439 -21.21976604 39.3336002 -19 37 C-18.46761719 36.45085938 -17.93523438 35.90171875 -17.38671875 35.3359375 C-8.09311055 25.32109585 -2.4789397 13.39113502 0 0 Z " fill="#ECA045" transform="translate(741,573)"/>
<path d="M0 0 C3.96 0 7.92 0 12 0 C12 15.18 12 30.36 12 46 C8.04 46 4.08 46 0 46 C-0.495 35.605 -0.495 35.605 -1 25 C-2.98 29.29 -4.96 33.58 -7 38 C-9.64 38 -12.28 38 -15 38 C-16.98 33.71 -18.96 29.42 -21 25 C-21.33 32.26 -21.66 39.52 -22 47 C-25.96 47 -29.92 47 -34 47 C-34 31.82 -34 16.64 -34 1 C-30.04 1 -26.08 1 -22 1 C-20.32834044 4.12242126 -18.66249811 7.24770626 -17 10.375 C-16.52304687 11.26445313 -16.04609375 12.15390625 -15.5546875 13.0703125 C-15.10351562 13.92109375 -14.65234375 14.771875 -14.1875 15.6484375 C-13.76855469 16.43395996 -13.34960938 17.21948242 -12.91796875 18.02880859 C-12 20 -12 20 -12 22 C-11.34 22 -10.68 22 -10 22 C-9.75507812 21.18273437 -9.51015625 20.36546875 -9.2578125 19.5234375 C-7.77452388 15.36838676 -5.88199051 11.54678711 -3.875 7.625 C-3.50246094 6.88894531 -3.12992188 6.15289063 -2.74609375 5.39453125 C-1.8343878 3.59449642 -0.91770068 1.79698598 0 0 Z " fill="#2B2B2A" transform="translate(762,762)"/>
<path d="M0 0 C0.33 0 0.66 0 1 0 C1.01458252 0.58265625 1.02916504 1.1653125 1.04418945 1.765625 C1.81080893 29.33141951 6.55097124 54.58824201 26.93359375 74.9296875 C28.8984123 76.70869826 30.91085161 78.36906631 33 80 C33.71414063 80.56203125 34.42828125 81.1240625 35.1640625 81.703125 C46.35102425 90.00916349 61.22394897 98.22648839 75.2734375 99.41015625 C86.5468142 100.48716852 86.5468142 100.48716852 89.43945312 103.49853516 C92.02806333 107.38250275 93.60095177 111.56870497 95 116 C72.58838979 116.78637229 52.41643432 109.55240996 33 99 C33 98.01 33 97.02 33 96 C32.34 96 31.68 96 31 96 C29.97353945 94.3494981 28.97847164 92.67939603 28 91 C26.68708229 89.44091021 25.35167853 87.90060776 24 86.375 C17.55620443 78.60454064 12.78930796 69.85431956 8 61 C7.46117187 60.01 6.92234375 59.02 6.3671875 58 C-2.81034937 39.52948555 -3.9479274 19.95113311 0 0 Z " fill="#F7BB48" transform="translate(557,379)"/>
<path d="M0 0 C3.91330653 -0.84164865 7.11605707 -1.07373555 11 0 C14.07474427 3.35571228 16.04963692 7.12791289 18.06054688 11.16894531 C19.55351928 14.07884476 21.29502614 16.83566277 23 19.625 C26 24.62053571 26 24.62053571 26 28 C26.66 28 27.32 28 28 28 C27.98839844 26.96101562 27.97679687 25.92203125 27.96484375 24.8515625 C27.90574218 17.15358271 28.04329014 9.6536789 29 2 C34.445 2.495 34.445 2.495 40 3 C40.1018936 11.86474319 39.72503266 20.59903238 39.0625 29.4375 C38.97548828 30.67693359 38.88847656 31.91636719 38.79882812 33.19335938 C38.07353713 43.13790485 38.07353713 43.13790485 37 48 C32.9637755 49.17403488 29.99661546 49.41294486 26 48 C21.53833159 43.21964098 18.88247616 36.78954682 16 31 C14.35 28.03 12.7 25.06 11 22 C10.34 29.92 9.68 37.84 9 46 C5.04 46 1.08 46 -3 46 C-3.22210935 38.33722725 -2.64473628 30.96518819 -1.78613281 23.36669922 C-0.91863003 15.58850256 -0.40961922 7.81510357 0 0 Z " fill="#2C2C2B" transform="translate(903,767)"/>
<path d="M0 0 C8.91 0 17.82 0 27 0 C27 16.17 27 32.34 27 49 C18.09 49 9.18 49 0 49 C0 32.83 0 16.66 0 0 Z " fill="#FDD35D" transform="translate(836,684)"/>
<path d="M0 0 C0.6518481 -0.00085442 1.3036962 -0.00170885 1.97529727 -0.00258917 C4.16331294 -0.00423856 6.35125224 0.00126857 8.53926086 0.00672913 C10.10618589 0.00701114 11.67311106 0.00685299 13.24003601 0.00628662 C17.49799856 0.0059992 21.75593306 0.011887 26.01388907 0.01886058 C30.46218967 0.02510332 34.91049087 0.02569865 39.35879517 0.02688599 C47.7841601 0.02999658 56.20951208 0.03820632 64.6348713 0.04823548 C74.22605045 0.05940504 83.81723021 0.06490919 93.40841424 0.06993091 C113.13994392 0.08038914 132.87146193 0.09798335 152.60298157 0.12025452 C152.60298157 0.45025452 152.60298157 0.78025452 152.60298157 1.12025452 C114.65298157 1.12025452 76.70298157 1.12025452 37.60298157 1.12025452 C36.94298157 2.77025452 36.28298157 4.42025452 35.60298157 6.12025452 C33.54048157 9.49525452 33.54048157 9.49525452 32.50532532 11.08119202 C31.17862427 13.83005867 31.17862427 13.83005867 30.60298157 20.12025452 C74.82298157 20.45025452 119.04298157 20.78025452 164.60298157 21.12025452 C164.60298157 21.45025452 164.60298157 21.78025452 164.60298157 22.12025452 C104.54298157 22.12025452 44.48298157 22.12025452 -17.39701843 22.12025452 C-17.39701843 8.45358785 -17.39701843 8.45358785 -13.39701843 4.12025452 C-9.11900068 0.36078437 -5.58157032 -0.0043984 0 0 Z " fill="#DE9C47" transform="translate(694.3970184326172,649.8797454833984)"/>
<path d="M0 0 C3.63 0 7.26 0 11 0 C11.81418863 4.4386275 12.25405444 8.80186903 12.53515625 13.3046875 C12.57813339 13.98749786 12.62111053 14.67030823 12.66539001 15.37380981 C12.75508007 16.81079932 12.84323628 18.24788531 12.92993164 19.68505859 C13.06170925 21.86193734 13.19943315 24.0383808 13.33789062 26.21484375 C13.4248357 27.61976965 13.51143543 29.02471697 13.59765625 30.4296875 C13.67508057 31.69022949 13.75250488 32.95077148 13.83227539 34.24951172 C14.00789106 38.17645198 14.02802171 42.06988673 14 46 C10.04 46 6.08 46 2 46 C1.22959149 39.93303301 0.90293888 34.11485027 1 28 C-3.95 28.33 -8.9 28.66 -14 29 C-14 35.27 -14 41.54 -14 48 C-22.49609375 48.09765625 -22.49609375 48.09765625 -25 48 C-26.91596601 46.08403399 -26.38090532 42.66002234 -26.53515625 40.10546875 C-26.57813339 39.4028743 -26.62111053 38.70027985 -26.66539001 37.97639465 C-26.75583362 36.47927115 -26.84394124 34.98200503 -26.92993164 33.48461914 C-27.05977192 31.2347717 -27.19819617 28.98558256 -27.33789062 26.73632812 C-27.83549076 18.48179776 -28.13494319 10.2735168 -28 2 C-23.7345163 0.96594335 -20.62683027 1 -16 1 C-16 6.61 -16 12.22 -16 18 C-10.72 18 -5.44 18 0 18 C0 12.06 0 6.12 0 0 Z " fill="#2C2C2C" transform="translate(661,765)"/>
<path d="M0 0 C2.7504689 4.12570335 2.49219256 7.36991889 1.58789062 12.20214844 C1.02674895 14.60979061 0.40484591 16.99116223 -0.25 19.375 C-0.47888916 20.220625 -0.70777832 21.06625 -0.94360352 21.9375 C-2.50512483 27.5591943 -4.24800156 32.83874285 -7 38 C-7.38285156 38.78375 -7.76570312 39.5675 -8.16015625 40.375 C-14.44688258 52.69185159 -22.712108 64.71931421 -33 74 C-33.92088527 74.97520022 -34.83806121 75.95392856 -35.75 76.9375 C-38.03116948 79.02857203 -39.09166752 79.3767859 -42 80 C-42.495 81.485 -42.495 81.485 -43 83 C-45.58500256 84.32006647 -48.04880042 85.40861993 -50.75 86.4375 C-51.5455127 86.74244385 -52.34102539 87.0473877 -53.16064453 87.36157227 C-66.08452431 92.07995326 -80.20064749 95.02852317 -94 94 C-92.68266042 88.73776245 -91.07079919 83.77098013 -87 80 C-80.70420532 77.16446943 -73.57347171 76.58259035 -66.80664062 75.52294922 C-47.09513357 71.85018929 -27.70929708 58.08565039 -15.921875 42.19921875 C-14.1743801 39.51339507 -12.55560573 36.80090691 -11 34 C-10.53980469 33.17757812 -10.07960938 32.35515625 -9.60546875 31.5078125 C-4.31418577 21.5007335 -1.50658278 11.18043009 0 0 Z " fill="#F8BB47" transform="translate(978,400)"/>
<path d="M0 0 C9.63488289 0.34445444 19.24102858 3.4516225 28.57421875 5.76171875 C29.4561792 5.97981201 30.33813965 6.19790527 31.24682617 6.42260742 C32.07158447 6.62990479 32.89634277 6.83720215 33.74609375 7.05078125 C34.85355957 7.32849365 34.85355957 7.32849365 35.98339844 7.61181641 C37.82421875 8.13671875 37.82421875 8.13671875 39.82421875 9.13671875 C39.82421875 18.04671875 39.82421875 26.95671875 39.82421875 36.13671875 C36.52421875 35.47671875 33.22421875 34.81671875 29.82421875 34.13671875 C27.62489843 33.72401896 25.42450006 33.31698606 23.22265625 32.91796875 C22.0728125 32.70785156 20.92296875 32.49773437 19.73828125 32.28125 C17.37134415 31.8501853 15.00415426 31.42050642 12.63671875 30.9921875 C6.63721394 29.89340179 0.7182799 28.70846839 -5.17578125 27.13671875 C-5.39877777 8.77667229 -5.39877777 8.77667229 -4.17578125 1.13671875 C-3.17578125 0.13671875 -3.17578125 0.13671875 0 0 Z " fill="#FAD05C" transform="translate(869.17578125,288.86328125)"/>
<path d="M0 0 C21 0 21 0 30 3 C35.4779326 8.59205619 36.53710967 12.214251 36.47265625 19.875 C35.6926014 25.03238742 33.08655243 27.92098022 29 31 C23.21191179 33.67142533 17.26358574 33.15465644 11 33 C11 37.29 11 41.58 11 46 C7.37 46 3.74 46 0 46 C0 30.82 0 15.64 0 0 Z " fill="#292928" transform="translate(785,762)"/>
<path d="M0 0 C4.62 0 9.24 0 14 0 C15.9417447 4.96104471 17.88051397 9.92323847 19.81665039 14.88647461 C20.47438156 16.57135645 21.13289526 18.25593305 21.79223633 19.94018555 C22.74511156 22.37466997 23.69507632 24.81027368 24.64453125 27.24609375 C24.9352803 27.98709824 25.22602936 28.72810272 25.52558899 29.49156189 C27.51712164 34.61195529 29.29511824 39.7769649 31 45 C26.71 45 22.42 45 18 45 C17.34 42.36 16.68 39.72 16 37 C10.72 37 5.44 37 0 37 C-0.144375 38.299375 -0.28875 39.59875 -0.4375 40.9375 C-0.875 44.875 -0.875 44.875 -2 46 C-3.85287502 46.07226502 -5.70833878 46.0838122 -7.5625 46.0625 C-8.57441406 46.05347656 -9.58632813 46.04445313 -10.62890625 46.03515625 C-11.41136719 46.02355469 -12.19382812 46.01195312 -13 46 C-12.4673768 39.63887839 -11.31330476 34.06327511 -9.27734375 28.02734375 C-9.01240616 27.21882462 -8.74746857 26.41030548 -8.47450256 25.57728577 C-7.63704212 23.0278966 -6.78751732 20.48272642 -5.9375 17.9375 C-5.36312539 16.1962295 -4.78955019 14.45469509 -4.21679688 12.71289062 C-2.82041199 8.47215638 -1.41320237 4.23515808 0 0 Z " fill="#2C2C2C" transform="translate(693,764)"/>
<path d="M0 0 C-0.99 0 -1.98 0 -3 0 C-2.89171875 1.30710937 -2.89171875 1.30710937 -2.78125 2.640625 C-2.17288341 10.44799618 -1.8709351 18.170063 -2 26 C-0.35 26 1.3 26 3 26 C-0.10577889 27.75510399 -2.80972485 28.43159588 -6.33203125 28.9296875 C-7.89123291 29.16026855 -7.89123291 29.16026855 -9.48193359 29.39550781 C-10.58102051 29.55374023 -11.68010742 29.71197266 -12.8125 29.875 C-21.50109364 31.18285278 -29.88138871 32.77125406 -38.3046875 35.265625 C-41 36 -41 36 -44 36 C-44 27.09 -44 18.18 -44 9 C-33.52983064 5.90813791 -23.11153805 2.86484629 -12.4375 0.5625 C-11.64754639 0.38686523 -10.85759277 0.21123047 -10.04370117 0.03027344 C-6.33120222 -0.74020696 -3.62390722 -1.10118173 0 0 Z " fill="#E89D44" transform="translate(670,289)"/>
<path d="M0 0 C6.40414875 1.40891273 10.56409914 3.79638631 14.6484375 9.16796875 C16.38475455 12.80620533 16.4529121 16.0521585 16.375 20 C16.36339844 20.7532959 16.35179687 21.5065918 16.33984375 22.28271484 C15.81168864 40.60115361 8.18138519 55.50671322 -5 68 C-9.65195246 72 -9.65195246 72 -12 72 C-10.99480182 65.87622688 -9.7263616 59.88715158 -8.1875 53.875 C-6.00505943 45.05609429 -4.66591939 36.09968204 -3.3125 27.125 C-3.14988174 26.05520905 -3.14988174 26.05520905 -2.98397827 24.96380615 C-1.72916987 16.66272924 -0.62596902 8.37664407 0 0 Z " fill="#F9C56B" transform="translate(934,369)"/>
<path d="M0 0 C0.10022461 0.89493164 0.20044922 1.78986328 0.30371094 2.71191406 C2.56635998 22.69608195 4.82911751 42.48440335 10.47265625 61.85546875 C11.14939415 64.6075362 11.2284999 67.18183462 11 70 C-0.09083168 65.28320951 -7.76265289 52.58714214 -12.3125 41.9375 C-15.81226679 32.35444758 -17.33482171 22.18084357 -16 12 C-13.10411496 6.83053713 -9.48712906 2.25924105 -3.75 0.1875 C-2 0 -2 0 0 0 Z " fill="#F9C56C" transform="translate(601,370)"/>
<path d="M0 0 C6.42271695 -0.12717281 12.84510716 -0.21450677 19.26879883 -0.2746582 C21.45219049 -0.2997435 23.63549866 -0.33381999 25.81860352 -0.37719727 C28.96391439 -0.43811124 32.10811146 -0.4662702 35.25390625 -0.48828125 C36.2239711 -0.51408768 37.19403595 -0.5398941 38.1934967 -0.56648254 C43.7410346 -0.56875872 47.2368756 0.08770665 51.65122986 3.53279114 C56.48099933 8.78667418 55 12.34236177 55 20 C39.49 20 23.98 20 8 20 C6.68 16.04 5.36 12.08 4 8 C2.72369311 5.30557434 1.41349258 2.62505764 0 0 Z " fill="#FDD45F" transform="translate(804,651)"/>
<path d="M0 0 C1.06734375 -0.01160156 1.06734375 -0.01160156 2.15625 -0.0234375 C5.92429832 -0.00937762 8.80489203 0.15321039 12 2.25 C11.54177532 5.71941546 11.10868317 8.92395049 10 12.25 C8.90300781 12.18039062 7.80601562 12.11078125 6.67578125 12.0390625 C5.22141562 11.98276448 3.76698348 11.9281665 2.3125 11.875 C1.59126953 11.82472656 0.87003906 11.77445313 0.12695312 11.72265625 C-4.03412455 11.60327393 -4.03412455 11.60327393 -7.61767578 13.49584961 C-9.94415471 16.16172759 -10.97002716 18.05142996 -11.5 21.5625 C-10.90442696 25.95485117 -10.06483821 30.29026911 -8 34.25 C-2.06303057 36.22898981 3.30989101 35.68861814 9 33.25 C11.125 33.1875 11.125 33.1875 13 34.25 C14.75 37.8125 14.75 37.8125 16 41.25 C9.63850626 47.03317613 3.2785013 47.78530002 -5.0625 47.62890625 C-11.06396074 46.85478166 -15.01446411 43.60098364 -18.875 39.125 C-24.28364325 31.80742384 -24.80609524 25.23387302 -24 16.25 C-22.23237073 9.48347014 -17.79855524 5.8061452 -12 2.25 C-11.13375 1.68152344 -11.13375 1.68152344 -10.25 1.1015625 C-6.88323795 -0.17266341 -3.54794999 -0.03856467 0 0 Z " fill="#2D2D2D" transform="translate(612,767.75)"/>
<path d="M0 0 C5.94 0 11.88 0 18 0 C18 16.83 18 33.66 18 51 C9.09 50.67 0.18 50.34 -9 50 C-9 49.67 -9 49.34 -9 49 C-6.03 49 -3.06 49 0 49 C0 32.83 0 16.66 0 0 Z " fill="#FDBF48" transform="translate(863,684)"/>
<path d="M0 0 C5.61 0 11.22 0 17 0 C17 16.5 17 33 17 50 C8.585 50.495 8.585 50.495 0 51 C0 34.17 0 17.34 0 0 Z " fill="#FBBC46" transform="translate(655,684)"/>
<path d="M0 0 C0.15855469 0.72703125 0.31710937 1.4540625 0.48046875 2.203125 C5.29168975 22.93656355 15.67389574 38.22093084 31.8359375 51.89453125 C34.79431212 54.77280548 36.79594246 57.28863746 37.29296875 61.45703125 C37.1953125 63.63802083 37.09765625 65.81901042 37 68 C32.05 68 27.1 68 22 68 C21.690625 66.1128125 21.690625 66.1128125 21.375 64.1875 C19.40632982 55.55771293 14.91470034 48.8860367 9.125 42.3125 C-0.34778094 31.31552724 -7.97326986 15.37911701 -10 1 C-6.52674819 -0.1577506 -3.63932552 -0.06866652 0 0 Z " fill="#F9BD49" transform="translate(797,572)"/>
<path d="M0 0 C2.64 0.33 5.28 0.66 8 1 C6.85507438 7.8524249 5.11031602 14.05399585 2.375 20.4375 C2.02308594 21.2637085 1.67117188 22.08991699 1.30859375 22.94116211 C-1.65335239 29.6562682 -5.28521244 35.36235674 -10 41 C-16.90087022 49.27348857 -21.33019235 56.54325338 -24 67 C-28.29 67 -32.58 67 -37 67 C-37.61049285 56.01112878 -37.61049285 56.01112878 -35 51.6875 C-34.03433608 50.75475644 -33.02977241 49.86144422 -32 49 C-31.360625 48.42765625 -30.72125 47.8553125 -30.0625 47.265625 C-28.68880814 46.04803448 -27.30460995 44.84219413 -25.91015625 43.6484375 C-23.47204731 41.54438439 -21.21976604 39.3336002 -19 37 C-18.46761719 36.45085938 -17.93523438 35.90171875 -17.38671875 35.3359375 C-8.09311055 25.32109585 -2.4789397 13.39113502 0 0 Z " fill="#F7B948" transform="translate(741,573)"/>
<path d="M0 0 C3.63 0 7.26 0 11 0 C11 14.85 11 29.7 11 45 C7.04 45 3.08 45 -1 45 C-1.20638953 12.27932197 -1.20638953 12.27932197 0 0 Z " fill="#2B2B2B" transform="translate(829,764)"/>
<path d="M0 0 C4.14798495 1.79117532 6.2414131 3.83492576 8 8 C8.56435273 13.83164492 7.96157352 17.79171553 5 23 C2.11230195 25.48662888 0.28041321 25.95994097 -3.5 26.5 C-7.94800613 25.86457055 -9.24086016 24.46863294 -12 21 C-14.48419483 17.45115025 -14.36026732 14.25115433 -14 10 C-12.82163496 6.46490489 -11.75225175 3.83285015 -9.25 1.0625 C-5.98872559 -0.47754625 -3.56385197 -0.37514231 0 0 Z " fill="#F6F6F6" transform="translate(874,775)"/>
<path d="M0 0 C6.27 0 12.54 0 19 0 C19 3.96 19 7.92 19 12 C17.164375 12.0825 15.32875 12.165 13.4375 12.25 C0.14915279 13.29335987 -11.41897696 16.90586929 -22 25 C-22.66 24.67 -23.32 24.34 -24 24 C-18.49559886 15.24709983 -10.82203926 7.44338592 -2 2 C-1.34 2 -0.68 2 0 2 C0 1.34 0 0.68 0 0 Z " fill="#F3B747" transform="translate(596,328)"/>
<path d="M0 0 C0.88945313 0.00966797 1.77890625 0.01933594 2.6953125 0.02929688 C3.61570312 0.05443359 4.53609375 0.07957031 5.484375 0.10546875 C6.42023437 0.11900391 7.35609375 0.13253906 8.3203125 0.14648438 C10.62558827 0.18176921 12.9296856 0.23106594 15.234375 0.29296875 C14.83605469 0.89882813 14.43773437 1.5046875 14.02734375 2.12890625 C10.2668849 8.07610395 7.98643074 13.47941865 6.234375 20.29296875 C-0.035625 20.29296875 -6.305625 20.29296875 -12.765625 20.29296875 C-13.34660186 8.38294304 -13.34660186 8.38294304 -8.765625 3.29296875 C-5.78003596 0.63924367 -3.98414212 -0.07661812 0 0 Z " fill="#FBC14B" transform="translate(689.765625,650.70703125)"/>
<path d="M0 0 C17.00445359 -0.86074287 17.00445359 -0.86074287 21.4375 2.25 C26.79149524 7.99575098 26.1821317 12.35046866 26 20 C19.73 20 13.46 20 7 20 C6.5875 18.494375 6.175 16.98875 5.75 15.4375 C4.74524059 12.04343232 3.6405313 9.09403945 1.8125 6.0625 C0 3 0 3 0 0 Z " fill="#FBBC45" transform="translate(833,651)"/>
<path d="M0 0 C3.16594536 -0.17638838 6.33060873 -0.28152076 9.5 -0.375 C10.8303125 -0.45041016 10.8303125 -0.45041016 12.1875 -0.52734375 C19.26612966 -0.68348999 22.90121837 1.19529806 28 6 C28.52867676 6.48194824 29.05735352 6.96389648 29.60205078 7.46044922 C31.04042124 8.81245101 32.42758528 10.2182912 33.8125 11.625 C34.72644531 12.54539062 35.64039063 13.46578125 36.58203125 14.4140625 C40.66664757 18.78242438 40.66664757 18.78242438 42 21 C41.505 22.485 41.505 22.485 41 24 C40.33355469 23.54109375 39.66710937 23.0821875 38.98046875 22.609375 C25.93860099 13.92695674 14.33654663 12.14160386 -1 11 C-0.67 10.34 -0.34 9.68 0 9 C0.06950541 7.45976004 0.08452357 5.91665012 0.0625 4.375 C0.05347656 3.55773437 0.04445313 2.74046875 0.03515625 1.8984375 C0.02355469 1.27195312 0.01195312 0.64546875 0 0 Z " fill="#F7BC49" transform="translate(922,330)"/>
<path d="M0 0 C11 2 11 2 13 3 C13 11.91 13 20.82 13 30 C9.7 29.34 6.4 28.68 3 28 C0.66957521 27.64690533 -1.66277542 27.30485538 -4 27 C-3.01 26.67 -2.02 26.34 -1 26 C-0.67 17.42 -0.34 8.84 0 0 Z " fill="#F4B845" transform="translate(896,295)"/>
<path d="M0 0 C0.85695967 5.88400655 1.12539234 11.55909292 1.0625 17.5 C1.05798828 18.32242187 1.05347656 19.14484375 1.04882812 19.9921875 C1.03718489 21.99482396 1.01925556 23.99742227 1 26 C-0.43554025 26.50559908 -1.8735202 27.0042749 -3.3125 27.5 C-4.11300781 27.7784375 -4.91351562 28.056875 -5.73828125 28.34375 C-8 29 -8 29 -11 29 C-11 20.09 -11 11.18 -11 2 C-4 0 -4 0 0 0 Z " fill="#F4B948" transform="translate(637,296)"/>
<path d="M0 0 C-0.68964844 0.69222656 -1.37929688 1.38445312 -2.08984375 2.09765625 C-12.25212323 12.5689301 -19.69050593 23.97020263 -24 38 C-24.391875 39.051875 -24.78375 40.10375 -25.1875 41.1875 C-26.22821944 44.78999035 -26.61422477 48.27083941 -27 52 C-27.33 52 -27.66 52 -28 52 C-28.46663643 35.56003955 -28.10147777 22.56036674 -16.85546875 9.51171875 C-5.84542872 -1.94847624 -5.84542872 -1.94847624 0 0 Z " fill="#F6BB4D" transform="translate(565,337)"/>
<path d="M0 0 C11.44843465 5.72421732 17.1660146 14.41149987 22 26 C23.41437609 30.2803487 24.24843372 33.93216915 24.125 38.4375 C24.10695313 39.30246094 24.08890625 40.16742188 24.0703125 41.05859375 C24.04710937 41.69925781 24.02390625 42.33992188 24 43 C23.01 43.495 23.01 43.495 22 44 C21.64808594 42.83984375 21.29617188 41.6796875 20.93359375 40.484375 C16.67822966 26.85228908 11.24266111 16.10058801 1.72265625 5.27734375 C0 3 0 3 0 0 Z " fill="#F4BC4B" transform="translate(974,338)"/>
<path d="M0 0 C8.3984375 -0.1953125 8.3984375 -0.1953125 11 0 C13 2 13 2 13.3125 5.4375 C13 9 13 9 11.8046875 10.7109375 C9.3710717 12.4492345 7.770827 12.30275949 4.8125 12.1875 C3.224375 12.125625 1.63625 12.06375 0 12 C0 8.04 0 4.08 0 0 Z " fill="#EBEBEC" transform="translate(796,773)"/>
<path d="M0 0 C0.33 0 0.66 0 1 0 C1 16.83 1 33.66 1 51 C-7.91 50.67 -16.82 50.34 -26 50 C-26 49.67 -26 49.34 -26 49 C-17.75 49 -9.5 49 -1 49 C-1.01160156 45.88175781 -1.02320313 42.76351562 -1.03515625 39.55078125 C-1.0429583 36.52579856 -1.04902854 33.500817 -1.05493164 30.47583008 C-1.05995581 28.37589007 -1.06677625 26.27595354 -1.07543945 24.17602539 C-1.0875889 21.15510191 -1.09324753 18.13422474 -1.09765625 15.11328125 C-1.10281754 14.17664139 -1.10797882 13.24000153 -1.11329651 12.27497864 C-1.11365846 8.05539962 -1.08716646 4.11167108 0 0 Z " fill="#D7A94B" transform="translate(880,684)"/>
<path d="M0 0 C3.96 0 7.92 0 12 0 C12 15.18 12 30.36 12 46 C9.03 46 6.06 46 3 46 C3 45.67 3 45.34 3 45 C5.31 45 7.62 45 10 45 C10 30.81 10 16.62 10 2 C6.7 2.33 3.4 2.66 0 3 C0 2.01 0 1.02 0 0 Z " fill="#3F3F3E" transform="translate(762,762)"/>
<path d="M0 0 C0.33 0 0.66 0 1 0 C1.02505615 0.60884033 1.0501123 1.21768066 1.07592773 1.8449707 C1.67302803 17.44744997 1.67302803 17.44744997 3 33 C2.34 33 1.68 33 1 33 C0.34 33.99 -0.32 34.98 -1 36 C-2.11281089 31.51314649 -2.19137252 27.09571148 -2.1875 22.5 C-2.18814453 21.71061035 -2.18878906 20.9212207 -2.18945312 20.10791016 C-2.1284476 13.2572665 -1.331338 6.7280117 0 0 Z " fill="#ECB152" transform="translate(557,379)"/>
<path d="M0 0 C2.03529587 2.03529587 2.6384272 3.23417382 3.625 5.875 C3.88539063 6.55304687 4.14578125 7.23109375 4.4140625 7.9296875 C5 10 5 10 5 14 C2.36 14 -0.28 14 -3 14 C-2.58846263 9.02906176 -2.20399168 4.55491614 0 0 Z " fill="#E8E8E8" transform="translate(700,777)"/>
<path d="M0 0 C2.71191196 4.06786793 2.5014324 7.29392795 1.6171875 12.06591797 C1.12042954 14.20325852 0.57357482 16.31953622 0 18.4375 C-0.19078125 19.16904297 -0.3815625 19.90058594 -0.578125 20.65429688 C-1.04450403 22.43819666 -1.52118278 24.21939845 -2 26 C-2.99 26 -3.98 26 -5 26 C-6 24 -6 24 -5.29296875 21.6015625 C-4.92816406 20.61929687 -4.56335938 19.63703125 -4.1875 18.625 C-2.03824835 12.48215618 -0.8673758 6.43684144 0 0 Z " fill="#EDC054" transform="translate(978,400)"/>
<path d="M0 0 C0.66 0.33 1.32 0.66 2 1 C1.5155542 1.38067627 1.0311084 1.76135254 0.53198242 2.15356445 C-1.54398655 4.65564466 -1.42640268 6.31802123 -1.51171875 9.54296875 C-1.54716797 10.61611328 -1.58261719 11.68925781 -1.61914062 12.79492188 C-1.64169922 13.91447266 -1.66425781 15.03402344 -1.6875 16.1875 C-1.72166016 17.31865234 -1.75582031 18.44980469 -1.79101562 19.61523438 C-1.87356314 22.4100574 -1.94269182 25.20456398 -2 28 C-2.33 28 -2.66 28 -3 28 C-3 19.09 -3 10.18 -3 1 C-2.01 0.67 -1.02 0.34 0 0 Z " fill="#414141" transform="translate(617,288)"/>
<path d="M0 0 C0 3.69840628 -0.82866944 4.31415433 -3.25 7 C-4.15492188 8.0209375 -4.15492188 8.0209375 -5.078125 9.0625 C-6.93766612 10.93715934 -8.84794211 12.47641919 -11 14 C-11.66 13.67 -12.32 13.34 -13 13 C-8.71 8.71 -4.42 4.42 0 0 Z " fill="#E5B351" transform="translate(960,445)"/>
<path d="M0 0 C2.225534 3.33830099 2.11207191 5.02460627 2.00390625 8.92578125 C1.99870643 11.68688302 2.4597254 14.29862698 3 17 C2.34 17 1.68 17 1 17 C-0.90288558 11.17241292 -2.00366625 6.01099874 0 0 Z " fill="#FCBF53" transform="translate(558,409)"/>
<path d="M0 0 C0.66 0.33 1.32 0.66 2 1 C-1.63 4.63 -5.26 8.26 -9 12 C-9 8.47601214 -8.44884893 7.98495633 -6.1875 5.4375 C-5.40439453 4.53837891 -5.40439453 4.53837891 -4.60546875 3.62109375 C-3 2 -3 2 0 0 Z " fill="#FCF3E1" transform="translate(642,660)"/>
<path d="M0 0 C1.03115279 3.26913624 0.9638984 5.86041348 0.5625 9.25 C0.46066406 10.14203125 0.35882812 11.0340625 0.25390625 11.953125 C0.17011719 12.62859375 0.08632813 13.3040625 0 14 C-0.99 14 -1.98 14 -3 14 C-4 12 -4 12 -3.22265625 9.1796875 C-2.83980469 8.08914063 -2.45695313 6.99859375 -2.0625 5.875 C-1.68222656 4.77929688 -1.30195312 3.68359375 -0.91015625 2.5546875 C-0.60980469 1.71164062 -0.30945313 0.86859375 0 0 Z " fill="#E3B450" transform="translate(976,412)"/>
<path d="M0 0 C1.9375 0.75 1.9375 0.75 4 2 C4.75 4.125 4.75 4.125 5 6 C5.66 6 6.32 6 7 6 C6.67 6.66 6.34 7.32 6 8 C3.36 6.02 0.72 4.04 -2 2 C-1.34 1.34 -0.68 0.68 0 0 Z " fill="#DA9844" transform="translate(583,469)"/>
<path d="M0 0 C0.99 0.33 1.98 0.66 3 1 C0.36 3.64 -2.28 6.28 -5 9 C-5.66 8.34 -6.32 7.68 -7 7 C-4.69 4.69 -2.38 2.38 0 0 Z " fill="#373226" transform="translate(575,351)"/>
<path d="M0 0 C0.33 0.66 0.66 1.32 1 2 C-0.98 4.31 -2.96 6.62 -5 9 C-5.99 8.67 -6.98 8.34 -8 8 C-7.38125 7.7525 -6.7625 7.505 -6.125 7.25 C-3.61104784 5.77120461 -3.1465949 4.62078835 -2 2 C-1.34 1.34 -0.68 0.68 0 0 Z " fill="#453F2C" transform="translate(974,453)"/>
</svg>
